<?xml version="1.0" encoding="utf-8"?>
<!-- Generator: Adobe Illustrator 27.5.0, SVG Export Plug-In . SVG Version: 6.00 Build 0)  -->
<svg version="1.1" xmlns="http://www.w3.org/2000/svg" xmlns:xlink="http://www.w3.org/1999/xlink" x="0px" y="0px"
	 viewBox="0 0 500 500" style="enable-background:new 0 0 500 500;" xml:space="preserve">
<g id="Background_complete">
	<g>
		<g>
			<g>
				<rect y="382.398" style="fill:#F0F0F0;" width="500" height="0.25"/>
				<rect x="344.518" y="395" style="fill:#F0F0F0;" width="10.482" height="0.25"/>
				<rect x="64.932" y="388.438" style="fill:#F0F0F0;" width="10.13" height="0.25"/>
				<rect x="153.448" y="394.875" style="fill:#F0F0F0;" width="30.663" height="0.25"/>
				<rect x="214.316" y="389.174" style="fill:#F0F0F0;" width="19.684" height="0.25"/>
				<rect x="377.176" y="390.757" style="fill:#F0F0F0;" width="52.444" height="0.25"/>
				<rect x="79.889" y="388.438" style="fill:#F0F0F0;" width="43.066" height="0.25"/>
				<rect x="435.451" y="390.882" style="fill:#F0F0F0;" width="16.468" height="0.25"/>
				<path style="fill:#F0F0F0;" d="M237.014,337.8H43.915c-3.147,0-5.708-2.561-5.708-5.708V60.66c0-3.147,2.561-5.708,5.708-5.708
					h193.099c3.146,0,5.707,2.561,5.707,5.708v271.432C242.721,335.239,240.16,337.8,237.014,337.8z M43.915,55.203
					c-3.01,0-5.458,2.448-5.458,5.458v271.432c0,3.01,2.448,5.458,5.458,5.458h193.099c3.009,0,5.457-2.448,5.457-5.458V60.66
					c0-3.009-2.448-5.458-5.457-5.458H43.915z"/>
				<path style="fill:#F0F0F0;" d="M453.31,337.8H260.212c-3.146,0-5.707-2.561-5.707-5.708V60.66c0-3.147,2.561-5.708,5.707-5.708
					H453.31c3.148,0,5.708,2.561,5.708,5.708v271.432C459.019,335.239,456.458,337.8,453.31,337.8z M260.212,55.203
					c-3.009,0-5.457,2.448-5.457,5.458v271.432c0,3.01,2.448,5.458,5.457,5.458H453.31c3.01,0,5.458-2.448,5.458-5.458V60.66
					c0-3.009-2.448-5.458-5.458-5.458H260.212z"/>
			</g>
		</g>
	</g>
	<g>
		<rect x="408.361" y="322.369" style="fill:#E6E6E6;" width="27.503" height="60.029"/>
		<polygon style="fill:#F5F5F5;" points="430.64,382.398 435.864,382.398 435.864,367.539 425.163,367.539 		"/>
		<rect x="251.436" y="322.369" style="fill:#EBEBEB;" width="27.503" height="60.029"/>
		<rect x="274.381" y="322.369" style="fill:#F5F5F5;" width="161.483" height="50.911"/>
		<g>
			
				<rect x="289.95" y="317.035" transform="matrix(6.123234e-17 -1 1 6.123234e-17 -37.2845 644.6542)" style="fill:#E6E6E6;" width="27.471" height="47.869"/>
			<path style="fill:#F0F0F0;" d="M308.42,331.391h-9.47c-4.114,0-8.046-1.691-10.875-4.678l0,0h31.221l0,0
				C316.466,329.699,312.534,331.391,308.42,331.391z"/>
		</g>
		<g>
			
				<rect x="341.387" y="317.035" transform="matrix(6.123234e-17 -1 1 6.123234e-17 14.1531 696.0918)" style="fill:#E6E6E6;" width="27.471" height="47.869"/>
			<path style="fill:#F0F0F0;" d="M360.341,331.391h-9.47c-4.114,0-8.046-1.691-10.875-4.678l0,0h31.221l0,0
				C368.388,329.699,364.455,331.391,360.341,331.391z"/>
		</g>
		<g>
			
				<rect x="392.825" y="317.035" transform="matrix(6.123234e-17 -1 1 6.123234e-17 65.5907 747.5294)" style="fill:#E6E6E6;" width="27.471" height="47.869"/>
			<path style="fill:#F0F0F0;" d="M411.779,331.391h-9.47c-4.114,0-8.046-1.691-10.875-4.678l0,0h31.221l0,0
				C419.825,329.699,415.893,331.391,411.779,331.391z"/>
		</g>
		<polygon style="fill:#F5F5F5;" points="279.604,382.398 274.381,382.398 274.381,367.539 285.081,367.539 		"/>
	</g>
	<g>
		<rect x="62.866" y="73.99" style="fill:#E6E6E6;" width="245.536" height="132.458"/>
		<rect x="65.239" y="73.99" style="fill:#EBEBEB;" width="248.242" height="132.458"/>
		<rect x="62.866" y="206.449" style="fill:#E6E6E6;" width="245.536" height="9.438"/>
		<rect x="73.701" y="206.449" style="fill:#E6E6E6;" width="248.242" height="9.438"/>
		
			<rect x="130.242" y="23.209" transform="matrix(-1.836970e-16 1 -1 -1.836970e-16 329.5795 -49.1405)" style="fill:#FAFAFA;" width="118.237" height="234.021"/>
		<polygon style="fill:#FFFFFF;" points="85.953,199.338 127.688,81.101 147.389,81.101 105.654,199.338 		"/>
		<path style="fill:#E6E6E6;" d="M75.642,159.259c-0.3,0-0.544-0.244-0.544-0.544V85.728c0-0.3,0.244-0.544,0.544-0.544
			s0.544,0.244,0.544,0.544v72.988C76.186,159.016,75.942,159.259,75.642,159.259z"/>
		<polygon style="fill:#FFFFFF;" points="109.887,199.338 151.622,81.101 159.302,81.101 117.567,199.338 		"/>
		
			<rect x="246.8" y="139.768" transform="matrix(-1.836970e-16 1 -1 -1.836970e-16 446.1383 -165.6993)" style="fill:#E6E6E6;" width="118.237" height="0.903"/>
		<polygon style="fill:#EBEBEB;" points="315.163,90.198 69.626,90.198 68.972,83.865 314.508,83.865 		"/>
		<polygon style="fill:#EBEBEB;" points="315.163,94.834 69.626,94.834 68.972,88.501 314.508,88.501 		"/>
		<polygon style="fill:#EBEBEB;" points="315.163,100.397 69.626,100.397 68.972,94.064 314.508,94.064 		"/>
		<polygon style="fill:#EBEBEB;" points="315.163,106.587 69.626,106.587 68.972,100.254 314.508,100.254 		"/>
		<polygon style="fill:#E6E6E6;" points="315.163,114.004 69.626,114.004 68.972,107.671 314.508,107.671 		"/>
		<polygon style="fill:#E6E6E6;" points="315.163,122.348 69.626,122.348 68.972,116.015 314.508,116.015 		"/>
	</g>
	<g>
		<rect x="342.24" y="130.002" style="fill:#EBEBEB;" width="34.248" height="39.456"/>
		<rect x="346.301" y="130.002" style="fill:#F5F5F5;" width="37.115" height="39.456"/>
		
			<rect x="348.24" y="134.282" transform="matrix(-1.836970e-16 1 -1 -1.836970e-16 514.589 -215.1288)" style="fill:#FFFFFF;" width="33.237" height="30.897"/>
		<path style="fill:#FAFAFA;" d="M356.899,155.567v-11.674c0-1.505,1.22-2.725,2.725-2.725h10.468c1.505,0,2.725,1.22,2.725,2.725
			v11.674c0,1.505-1.22,2.725-2.725,2.725h-10.468C358.12,158.293,356.899,157.072,356.899,155.567z"/>
	</g>
	<g>
		<rect x="393.93" y="112.647" style="fill:#EBEBEB;" width="34.248" height="39.456"/>
		<rect x="397.992" y="112.647" style="fill:#F5F5F5;" width="37.115" height="39.456"/>
		
			<rect x="399.931" y="116.927" transform="matrix(-1.836970e-16 1 -1 -1.836970e-16 548.9248 -284.1737)" style="fill:#FFFFFF;" width="33.237" height="30.896"/>
		<path style="fill:#FAFAFA;" d="M408.59,138.213v-11.674c0-1.505,1.22-2.725,2.725-2.725h10.468c1.505,0,2.725,1.22,2.725,2.725
			v11.674c0,1.505-1.22,2.725-2.725,2.725h-10.468C409.81,140.938,408.59,139.718,408.59,138.213z"/>
	</g>
	<g>
		<g>
			<rect x="204.772" y="265.668" style="fill:#E6E6E6;" width="55.561" height="116.73"/>
			<polygon style="fill:#E6E6E6;" points="254.745,382.398 260.333,382.398 260.333,366.501 248.885,366.501 			"/>
			<rect x="68.097" y="265.668" style="fill:#E6E6E6;" width="55.561" height="116.73"/>
			<rect x="118.781" y="265.668" style="fill:#F5F5F5;" width="141.552" height="106.976"/>
			<rect x="121.943" y="270.409" style="fill:#E6E6E6;" width="132.881" height="29.337"/>
			<path style="fill:#F5F5F5;" d="M195.834,279.526h-12.553c-5.453,0-10.666-3.619-14.416-10.009l0,0h41.385l0,0
				C206.5,275.906,201.287,279.526,195.834,279.526z"/>
			<polygon style="fill:#E6E6E6;" points="124.37,382.398 118.781,382.398 118.781,366.501 130.229,366.501 			"/>
			<rect x="121.943" y="304.487" style="fill:#E6E6E6;" width="132.881" height="29.337"/>
			<path style="fill:#F5F5F5;" d="M195.834,313.604h-12.553c-5.453,0-10.666-3.619-14.416-10.009l0,0h41.385l0,0
				C206.5,309.984,201.287,313.604,195.834,313.604z"/>
			<rect x="121.943" y="338.565" style="fill:#E6E6E6;" width="132.881" height="29.337"/>
			<path style="fill:#F5F5F5;" d="M195.834,347.682h-12.553c-5.453,0-10.666-3.619-14.416-10.009l0,0h41.385l0,0
				C206.5,344.063,201.287,347.682,195.834,347.682z"/>
		</g>
	</g>
	<g>
		<path style="fill:#E6E6E6;" d="M382.534,311.603h1.657c-0.017-3.416,0.008-12.082,0.174-31.942
			c0.298-35.997,0.87-38.192,0.87-38.192l-3.949,16.618C378.784,276.488,382.012,294.98,382.534,311.603z"/>
		<path style="fill:#E6E6E6;" d="M375.177,251.933c-8.692-8.589-25.654-9.74-42.978-10.46c-6.802-0.283,18.999,12.786,31.928,22.573
			c10.044,7.603,16.178,9.389,19.507,17.591C383.973,270.991,382.666,259.334,375.177,251.933z"/>
		<path style="fill:#E6E6E6;" d="M384.731,233.247c5.888-11.188,20.708-21.723,37.336-25.719
			c6.528-1.569-15.123,20.661-23.352,34.995c-6.393,11.135-14.871,24.217-16.188,33.613
			C380.537,257.521,378.843,244.436,384.731,233.247z"/>
		<g>
			<path style="fill:#F0F0F0;" d="M383.973,322.369L383.973,322.369c-5.788,0-10.571-4.516-10.904-10.295l-0.965-9.873h23.737
				l-0.965,9.873C394.545,317.853,389.762,322.369,383.973,322.369z"/>
			<polygon style="fill:#F5F5F5;" points="397.379,306 370.568,306 369.8,295.002 398.146,295.002 			"/>
		</g>
	</g>
</g>
<g id="Background_simple" style="display:none;">
	<path style="display:inline;fill:#407BFF;" d="M194.247,157.565c21.707-41.443,33.542-80.854,85.657-88.107
		c45.26-6.299,98.047,20.314,128.109,53.073c58.326,63.557,9.942,206.632-81.436,193.278c-61.781-9.029-83.73-25.105-142.788-4.272
		c-39,13.757-90.507,14.393-120.677-19.865c-30.896-35.082-4.363-58.128,31.054-71.956
		C134.395,204.008,169.843,204.156,194.247,157.565z"/>
	<path style="display:inline;opacity:0.9;fill:#FFFFFF;" d="M194.247,157.565c21.707-41.443,33.542-80.854,85.657-88.107
		c45.26-6.299,98.047,20.314,128.109,53.073c58.326,63.557,9.942,206.632-81.436,193.278c-61.781-9.029-83.73-25.105-142.788-4.272
		c-39,13.757-90.507,14.393-120.677-19.865c-30.896-35.082-4.363-58.128,31.054-71.956
		C134.395,204.008,169.843,204.156,194.247,157.565z"/>
</g>
<g id="Shadow">
	<ellipse style="fill:#F5F5F5;" cx="250" cy="416.238" rx="193.889" ry="11.323"/>
</g>
<g id="Shield">
	<g>
		<path style="fill:#407BFF;" d="M245.464,142.811c1.356,16.987,20.983,39.078,27.279,45.763c1.05,1.114,2.808,1.114,3.858,0
			c6.296-6.685,25.923-28.777,27.279-45.763c0.086-1.07-0.445-2.094-1.39-2.604l-26.555-14.333c-0.788-0.425-1.737-0.425-2.526,0
			l-26.555,14.333C245.909,140.717,245.379,141.741,245.464,142.811z"/>
		<g>
			<path style="opacity:0.3;fill:#407BFF;" d="M272.697,182.133c-8.04-9.053-19.594-24.13-22.363-36.176
				c-0.264-1.147,0.251-2.329,1.272-2.916l21.742-12.498c0.82-0.472,1.83-0.471,2.65,0l21.741,12.498
				c1.02,0.586,1.535,1.768,1.272,2.915c-2.764,12.058-14.317,27.129-22.358,36.177C275.599,183.32,273.749,183.319,272.697,182.133
				z"/>
			<path style="opacity:0.3;fill:#FFFFFF;" d="M272.697,182.133c-8.04-9.053-19.594-24.13-22.363-36.176
				c-0.264-1.147,0.251-2.329,1.272-2.916l21.742-12.498c0.82-0.472,1.83-0.471,2.65,0l21.741,12.498
				c1.02,0.586,1.535,1.768,1.272,2.915c-2.764,12.058-14.317,27.129-22.358,36.177C275.599,183.32,273.749,183.319,272.697,182.133
				z"/>
		</g>
		<path style="fill:#FFFFFF;" d="M271.706,163.876c-0.384,0-0.768-0.146-1.061-0.439l-7.406-7.406c-0.586-0.586-0.586-1.535,0-2.121
			c0.586-0.586,1.535-0.586,2.121,0l6.346,6.345l14.952-14.953c0.586-0.586,1.535-0.586,2.121,0c0.586,0.585,0.586,1.535,0,2.121
			l-16.013,16.014C272.474,163.729,272.09,163.876,271.706,163.876z"/>
	</g>
</g>
<g id="Vault">
	<g>
		<path style="fill:#263238;" d="M334.671,204.333H196.005c-6.6,0-12,5.4-12,12v181.905c0,6.6,5.4,12,12,12h138.667
			c6.6,0,12-5.4,12-12V216.333C346.671,209.733,341.271,204.333,334.671,204.333z"/>
		<path style="fill:#407BFF;" d="M344.005,204.333H205.338c-6.6,0-12,5.4-12,12v181.905c0,6.6,5.4,12,12,12h138.667
			c6.6,0,12-5.4,12-12V216.333C356.005,209.733,350.605,204.333,344.005,204.333z"/>
		<path style="fill:#263238;" d="M221.764,413.905h-13.505c-0.411,0-0.747-0.336-0.747-0.747v-2.172
			c0-0.411,0.336-0.747,0.747-0.747h13.505c0.411,0,0.747,0.336,0.747,0.747v2.172C222.511,413.568,222.175,413.905,221.764,413.905
			z"/>
		<path style="fill:#263238;" d="M341.084,413.905h-13.505c-0.411,0-0.747-0.336-0.747-0.747v-2.172
			c0-0.411,0.336-0.747,0.747-0.747h13.505c0.411,0,0.747,0.336,0.747,0.747v2.172C341.832,413.568,341.495,413.905,341.084,413.905
			z"/>
		<path style="opacity:0.2;" d="M344.005,204.333H205.338c-6.6,0-12,5.4-12,12v181.905c0,6.6,5.4,12,12,12h138.667
			c6.6,0,12-5.4,12-12V216.333C356.005,209.733,350.605,204.333,344.005,204.333z"/>
		<path style="opacity:0.4;fill:#E6E6E6;" d="M327.671,386.488H221.672c-2.527,0-4.583-2.056-4.583-4.583V232.667
			c0-2.527,2.056-4.584,4.583-4.584h105.999c2.527,0,4.584,2.056,4.584,4.584v149.239
			C332.255,384.433,330.198,386.488,327.671,386.488z M221.672,228.583c-2.251,0-4.083,1.832-4.083,4.084v149.239
			c0,2.251,1.832,4.083,4.083,4.083h105.999c2.252,0,4.084-1.832,4.084-4.083V232.667c0-2.252-1.832-4.084-4.084-4.084H221.672z"/>
		<g>
			<path style="fill:#407BFF;" d="M221.672,384.238c-1.287,0-2.334-1.047-2.334-2.333V232.666c0-1.286,1.047-2.333,2.334-2.333
				h105.999c1.286,0,2.333,1.047,2.333,2.333v149.239c0,1.286-1.047,2.333-2.333,2.333H221.672z"/>
			<path style="opacity:0.1;fill:#FFFFFF;" d="M221.672,384.238c-1.287,0-2.334-1.047-2.334-2.333V232.666
				c0-1.286,1.047-2.333,2.334-2.333h105.999c1.286,0,2.333,1.047,2.333,2.333v149.239c0,1.286-1.047,2.333-2.333,2.333H221.672z"/>
		</g>
		<g>
			<rect x="358.505" y="246.778" style="fill:#407BFF;" width="1" height="8.445"/>
			<rect x="358.505" y="216.333" style="fill:#407BFF;" width="1" height="21.556"/>
		</g>
		<circle style="opacity:0.1;" cx="274.671" cy="310.202" r="34.099"/>
		<g>
			<circle style="fill:#407BFF;" cx="274.672" cy="251.23" r="8.333"/>
			<circle style="opacity:0.6;fill:#FFFFFF;" cx="274.623" cy="251.206" r="8.333"/>
			<path style="fill:#407BFF;" d="M274.672,257.814c-3.631,0-6.584-2.953-6.584-6.583c0-3.63,2.953-6.583,6.584-6.583
				c3.63,0,6.583,2.953,6.583,6.583C281.255,254.86,278.302,257.814,274.672,257.814z M274.672,245.147
				c-3.354,0-6.084,2.729-6.084,6.083c0,3.355,2.729,6.083,6.084,6.083c3.355,0,6.083-2.729,6.083-6.083
				C280.755,247.876,278.026,245.147,274.672,245.147z"/>
		</g>
		<g>
			<path style="fill:#407BFF;" d="M219.19,273.187h-3.703c-0.815,0-1.482-0.667-1.482-1.481v-20.295
				c0-0.815,0.667-1.482,1.482-1.482h3.703c0.815,0,1.481,0.667,1.481,1.482v20.295C220.671,272.52,220.005,273.187,219.19,273.187z
				"/>
			<path style="opacity:0.6;fill:#FFFFFF;" d="M219.19,273.187h-3.703c-0.815,0-1.482-0.667-1.482-1.481v-20.295
				c0-0.815,0.667-1.482,1.482-1.482h3.703c0.815,0,1.481,0.667,1.481,1.482v20.295C220.671,272.52,220.005,273.187,219.19,273.187z
				"/>
		</g>
		<g>
			<path style="fill:#407BFF;" d="M219.19,364.642h-3.703c-0.815,0-1.482-0.667-1.482-1.482v-20.295
				c0-0.815,0.667-1.482,1.482-1.482h3.703c0.815,0,1.481,0.667,1.481,1.482v20.295C220.671,363.976,220.005,364.642,219.19,364.642
				z"/>
			<path style="opacity:0.6;fill:#FFFFFF;" d="M219.19,364.642h-3.703c-0.815,0-1.482-0.667-1.482-1.482v-20.295
				c0-0.815,0.667-1.482,1.482-1.482h3.703c0.815,0,1.481,0.667,1.481,1.482v20.295C220.671,363.976,220.005,364.642,219.19,364.642
				z"/>
		</g>
		<g>
			<circle style="fill:#407BFF;" cx="274.671" cy="307.286" r="34.099"/>
			<circle style="opacity:0.6;fill:#FFFFFF;" cx="274.671" cy="307.286" r="34.099"/>
		</g>
		<g>
			<g>
				
					<rect x="273.671" y="282.417" transform="matrix(0.7071 -0.7071 0.7071 0.7071 -136.8344 284.2238)" style="fill:#407BFF;" width="2" height="49.736"/>
				
					<rect x="249.803" y="306.286" transform="matrix(0.7071 -0.7071 0.7071 0.7071 -136.8344 284.2238)" style="fill:#407BFF;" width="49.736" height="2"/>
			</g>
			<g>
				
					<rect x="249.697" y="306.174" transform="matrix(0.7071 -0.7071 0.7071 0.7071 -136.7865 284.1159)" style="opacity:0.2;" width="49.736" height="2"/>
				
					<rect x="273.565" y="282.306" transform="matrix(0.7071 -0.7071 0.7071 0.7071 -136.7865 284.1159)" style="opacity:0.2;" width="2" height="49.736"/>
				<path style="fill:#407BFF;" d="M274.566,333.063c-14.275,0-25.889-11.613-25.889-25.889c0-14.275,11.614-25.89,25.889-25.89
					c14.275,0,25.889,11.614,25.889,25.89C300.454,321.45,288.841,333.063,274.566,333.063z M274.566,283.285
					c-13.173,0-23.889,10.717-23.889,23.89c0,13.172,10.716,23.889,23.889,23.889c13.172,0,23.889-10.717,23.889-23.889
					C298.454,294.001,287.737,283.285,274.566,283.285z"/>
				
					<ellipse transform="matrix(0.7071 -0.7071 0.7071 0.7071 -136.7864 284.1161)" style="fill:#407BFF;" cx="274.565" cy="307.174" rx="10.833" ry="10.833"/>
				<path style="opacity:0.2;" d="M274.566,333.063c-14.275,0-25.889-11.613-25.889-25.889c0-14.275,11.614-25.89,25.889-25.89
					c14.275,0,25.889,11.614,25.889,25.89C300.454,321.45,288.841,333.063,274.566,333.063z M274.566,283.285
					c-13.173,0-23.889,10.717-23.889,23.89c0,13.172,10.716,23.889,23.889,23.889c13.172,0,23.889-10.717,23.889-23.889
					C298.454,294.001,287.737,283.285,274.566,283.285z"/>
				
					<ellipse transform="matrix(0.7071 -0.7071 0.7071 0.7071 -136.7864 284.1161)" style="opacity:0.2;" cx="274.565" cy="307.174" rx="10.833" ry="10.833"/>
			</g>
		</g>
	</g>
</g>
<g id="Character">
	<g>
		<path style="fill:#7F3E3B;" d="M191.017,162.763c2.413,5.582,4.901,11.25,7.42,16.821c2.511,5.586,5.099,11.128,7.866,16.44
			c0.703,1.297,1.385,2.65,2.125,3.876l0.546,0.939l0.271,0.466c-0.026-0.043-0.077-0.076-0.095-0.093
			c-0.123-0.076-0.038,0.072,0.242,0.237c0.557,0.37,1.708,0.754,2.939,0.99c1.247,0.239,2.623,0.412,4.036,0.518
			c2.837,0.195,5.821,0.195,8.825,0.104l4.534-0.191l4.524-0.3l1.166,5.443c-6.175,1.972-12.339,3.389-19.079,3.819
			c-1.691,0.091-3.423,0.119-5.254-0.05c-1.837-0.184-3.766-0.447-6.018-1.42c-1.11-0.511-2.353-1.233-3.499-2.482
			c-0.285-0.301-0.553-0.656-0.807-1.013l-0.347-0.521l-0.688-1.036c-0.943-1.384-1.743-2.763-2.601-4.149
			c-3.248-5.554-6.142-11.166-8.862-16.842c-2.711-5.693-5.248-11.384-7.629-17.259L191.017,162.763z"/>
		<g>
			<path style="fill:#407BFF;" d="M177.72,161.992c-2.268,6.633,11.067,26.166,11.067,26.166l12.788-7.078
				c0,0-3.481-9.936-7.68-17.803C189.389,154.836,180.209,154.713,177.72,161.992z"/>
			<path style="opacity:0.5;fill:#FFFFFF;" d="M177.72,161.992c-2.268,6.633,11.067,26.166,11.067,26.166l12.788-7.078
				c0,0-3.481-9.936-7.68-17.803C189.389,154.836,180.209,154.713,177.72,161.992z"/>
		</g>
		<g>
			<path style="fill:#407BFF;" d="M177.526,162.832c2.86-1.376,6.159-0.225,9.622,5.254c3.419,5.422,6.424,14.635,6.747,17.247
				l-5.11,2.826C188.785,188.158,176.473,170.122,177.526,162.832z"/>
			<path style="opacity:0.4;fill:#FFFFFF;" d="M177.526,162.832c2.86-1.376,6.159-0.225,9.622,5.254
				c3.419,5.422,6.424,14.635,6.747,17.247l-5.11,2.826C188.785,188.158,176.473,170.122,177.526,162.832z"/>
		</g>
		<path style="fill:#407BFF;" d="M186.347,156.919c0,0,9.526,22.387,2.662,64.079c-11.948,0-33.839,0-39.653,0
			c-0.484-6.087,2.31-35.78-4.555-64.461c0,0,6.75-1.364,13.216-1.676c5.058-0.244,12.388-0.406,16.856,0.001
			C180.764,155.398,186.347,156.919,186.347,156.919z"/>
		<path style="opacity:0.5;fill:#FFFFFF;" d="M186.347,156.919c0,0,9.526,22.387,2.662,64.079c-11.948,0-33.839,0-39.653,0
			c-0.484-6.087,2.31-35.78-4.555-64.461c0,0,6.75-1.364,13.216-1.676c5.058-0.244,12.388-0.406,16.856,0.001
			C180.764,155.398,186.347,156.919,186.347,156.919z"/>
		<g>
			<path style="fill:#407BFF;" d="M153.66,163.618c0.824,4.72-0.273,16.013-4.316,29.063c-0.362-10.043-1.37-21.688-3.894-33.291
				l-0.002-0.056C148.052,159.067,152.874,159.194,153.66,163.618z"/>
			<path style="opacity:0.4;fill:#FFFFFF;" d="M153.66,163.618c0.824,4.72-0.273,16.013-4.316,29.063
				c-0.362-10.043-1.37-21.688-3.894-33.291l-0.002-0.056C148.052,159.067,152.874,159.194,153.66,163.618z"/>
		</g>
		<polygon style="fill:#7F3E3B;" points="135.315,398.627 141.193,403.886 152.377,392.239 146.499,386.979 		"/>
		<path style="fill:#263238;" d="M142.814,401.776l-7.145-4.81c-0.267-0.18-0.607-0.17-0.818,0.023l-5.461,5.511
			c-0.485,0.447-0.327,1.217,0.263,1.671c4.558,3.51,7.851,6.16,10.445,9.079c3.033,3.413,4.625,3.895,11.625,3.895
			c3.238,0,5.069-2.727,3.75-3.145c-11.667-3.694-8.548-5.3-11.381-10.709C143.785,402.703,143.379,402.156,142.814,401.776z"/>
		<g>
			<polygon style="fill:#5E2B2B;" points="152.372,392.241 146.609,398.246 140.729,392.984 146.492,386.979 			"/>
			<polygon style="fill:#5E2B2B;" points="156.406,392.412 163.823,392.412 163.323,401.261 155.906,401.261 			"/>
		</g>
		<g>
			<path style="fill:#407BFF;" d="M189.009,220.998c0,0,7.809,54.058,10.475,83.485c2.139,23.603-48.911,94.032-48.911,94.032
				l-9.876-9.293c0,0,37.288-63.111,34.418-89.389c-2.78-25.454-12.205-78.836-12.205-78.836H189.009z"/>
			<path style="opacity:0.5;" d="M189.009,220.998c0,0,7.809,54.058,10.475,83.485c2.139,23.603-48.911,94.032-48.911,94.032
				l-9.876-9.293c0,0,37.288-63.111,34.418-89.389c-2.78-25.454-12.205-78.836-12.205-78.836H189.009z"/>
		</g>
		<polygon style="fill:#7F3E3B;" points="155.445,409.575 162.859,409.575 163.821,392.407 156.408,392.407 		"/>
		<path style="fill:#263238;" d="M163.247,408.717h-8.329c-0.303,0-0.532,0.21-0.55,0.506l-0.404,6.59
			c-0.042,0.684,0.6,1.33,1.298,1.318c2.9-0.05,4.285-0.221,7.948-0.221c2.253,0,11.833,0.234,14.945,0.234
			c3.044,0,3.023-3.077,1.704-3.356c-5.913-1.25-13.242-2.973-15.335-4.617C164.147,408.876,163.691,408.717,163.247,408.717z"/>
		<path style="fill:#7F3E3B;" d="M232.625,202.917l6.819-2.695l1.66,6.978c0,0-7.776,2.321-8.969,0.08L232.625,202.917z"/>
		<polygon style="fill:#7F3E3B;" points="245.208,201.625 247.208,205.458 241.105,207.201 239.444,200.222 		"/>
		<path style="fill:#E6E6E6;" d="M176.49,155.03c-0.53-0.06-1.08-0.12-1.62-0.17c-4.47-0.4-11.8-0.24-16.85,0
			c-0.35,0.02-0.69,0.04-1.04,0.06l0.09,0.27c0.08,0.21,1.94,5.16,12.61,5.16c4.65,0,7.08-0.77,7.64-2.44
			C177.69,156.82,177.1,155.76,176.49,155.03z"/>
		<path style="fill:#7F3E3B;" d="M159.028,135.881c1.251,5.424,2.657,15.361-1.012,18.98c0,0,1.583,4.493,11.661,4.493
			c11.081,0,5.195-4.493,5.195-4.493c-6.098-1.444-6.098-5.932-5.19-10.146L159.028,135.881z"/>
		<path style="fill:#5E2B2B;" d="M163.372,139.486l6.306,5.225c-0.218,0.997-0.38,2.009-0.416,2.992
			c-2.322-0.334-5.584-2.87-5.913-5.289C163.184,141.208,163.195,140.048,163.372,139.486z"/>
		<path style="fill:#263238;" d="M174.84,119.751c3.369,2.176,3.854,12.659-1.076,14.157
			C168.835,135.406,168.46,115.629,174.84,119.751z"/>
		<path style="fill:#7F3E3B;" d="M156.658,130.198c2.259,7.023,3.222,11.236,7.779,14.098c6.854,4.304,14.877-0.894,14.773-8.375
			c-0.093-6.734-3.772-17.088-11.518-18.385C160.061,116.257,154.399,123.174,156.658,130.198z"/>
		<path style="fill:#263238;" d="M148.582,123.614c2.412,4.379,8.501,14.336,11.445,13.413c2.944-0.924,2.932-8.996-0.819-14.068
			c0,0,29.708,3.013,30.309-13.875c0.615-17.276-13.699-0.558-26.286,4.269C149.503,118.618,142.889,113.278,148.582,123.614z"/>
		<path style="fill:#263238;" d="M149.851,117.491c-0.116,0-0.22-0.081-0.244-0.199c-0.028-0.135,0.059-0.268,0.194-0.295
			c0.449-0.093,0.94-0.187,1.473-0.287c2.858-0.541,6.773-1.281,11.556-3.436c3.746-1.688,7.683-4.563,11.156-7.099
			c2.489-1.817,4.839-3.534,6.905-4.681c0.121-0.065,0.273-0.023,0.34,0.097c0.067,0.121,0.023,0.273-0.097,0.34
			c-2.039,1.131-4.378,2.839-6.853,4.647c-3.493,2.551-7.452,5.441-11.246,7.151c-4.837,2.179-8.786,2.926-11.669,3.471
			c-0.529,0.1-1.018,0.192-1.464,0.285C149.885,117.49,149.868,117.491,149.851,117.491z"/>
		<path style="fill:#7F3E3B;" d="M155.422,138.754c1.436,1.414,3.38,2.063,5.022,2.062c2.47-0.001,2.968-2.337,1.664-4.292
			c-1.174-1.76-3.874-3.88-6.056-2.938C153.902,134.515,153.781,137.137,155.422,138.754z"/>
		<path style="opacity:0.2;" d="M175.11,299.83c-1.43-13.11-4.63-33.65-7.38-50.47c1.44-2.82,5.478-8.527,5.478-8.527
			c3.62,12.51,11.489,59.667,0.262,123.357c-11.7,18.86-22.9,34.32-22.9,34.32l-1.53-24.32
			C159.85,353.85,177.1,318.02,175.11,299.83z"/>
		<path style="fill:#263238;" d="M168.048,129.807c0.148,0.58,0.578,0.982,0.96,0.898c0.382-0.084,0.571-0.621,0.423-1.201
			c-0.148-0.58-0.578-0.982-0.96-0.898C168.09,128.689,167.9,129.227,168.048,129.807z"/>
		<path style="fill:#263238;" d="M174.651,128.362c0.148,0.58,0.578,0.982,0.96,0.898c0.382-0.083,0.571-0.621,0.423-1.201
			c-0.148-0.58-0.578-0.982-0.96-0.898C174.692,127.245,174.503,127.782,174.651,128.362z"/>
		<path style="fill:#630F0F;" d="M172.625,129.11c0,0,2.183,3.054,4.057,4.348c-0.789,1.183-2.658,1.13-2.658,1.13L172.625,129.11z"
			/>
		<path style="fill:#263238;" d="M171.501,136.697c-2.028,0-3.267-1.137-3.328-1.194c-0.071-0.066-0.074-0.177-0.008-0.248
			c0.066-0.069,0.177-0.073,0.248-0.008c0.017,0.016,1.677,1.533,4.237,0.973c0.097-0.019,0.189,0.04,0.209,0.134
			c0.021,0.095-0.039,0.189-0.134,0.209C172.291,136.657,171.882,136.697,171.501,136.697z"/>
		<path style="fill:#263238;" d="M165.432,128.14c-0.047,0-0.094-0.009-0.14-0.029c-0.178-0.078-0.259-0.284-0.182-0.462
			c0.765-1.76,2.374-2.014,2.442-2.024c0.189-0.026,0.37,0.104,0.398,0.297c0.028,0.191-0.105,0.37-0.296,0.398
			c-0.066,0.011-1.299,0.227-1.9,1.61C165.696,128.061,165.567,128.14,165.432,128.14z"/>
		<path style="fill:#263238;" d="M176.879,125.489c-0.101,0-0.2-0.043-0.27-0.126c-1.011-1.213-2.289-1.127-2.34-1.122
			c-0.193,0.01-0.363-0.128-0.379-0.32c-0.017-0.192,0.125-0.362,0.317-0.379c0.066-0.006,1.684-0.135,2.941,1.371
			c0.124,0.149,0.104,0.371-0.044,0.495C177.039,125.462,176.959,125.489,176.879,125.489z"/>
		<path style="fill:#7F3E3B;" d="M149.942,196.682c-2.127-0.75-4.187-1.673-5.699-2.649c-0.457-0.295-0.83-0.612-1.079-0.871
			c0.458-2.152,1.054-4.316,1.702-6.485c0.705-2.195,1.453-4.392,2.281-6.579c0.842-2.182,1.713-4.363,2.637-6.527
			c0.456-1.083,0.925-2.163,1.41-3.23l1.435-3.113l-10.003-5.12c-0.655,1.253-1.199,2.353-1.731,3.542
			c-0.535,1.168-1.047,2.341-1.548,3.521c-0.983,2.365-1.889,4.767-2.697,7.213c-1.622,4.891-2.909,9.957-3.55,15.299l-0.035,0.266
			l-0.049,0.525c-0.034,0.345-0.024,0.714-0.013,1.073c0.037,0.725,0.166,1.459,0.381,2.139c0.428,1.368,1.143,2.495,1.88,3.33
			c1.496,1.668,2.998,2.532,4.397,3.258c2.806,1.384,5.446,2.022,8.047,2.581c5.215,1.019,10.229,1.317,15.397,1.197l0.457-5.548
			C158.953,199.437,154.222,198.207,149.942,196.682z"/>
		<path style="fill:#407BFF;" d="M165.876,410.002c-0.684,0-1.442-0.141-1.975-0.265c-0.064-0.015-0.113-0.066-0.126-0.131
			c-0.012-0.064,0.015-0.13,0.069-0.168c0.236-0.165,2.332-1.594,3.234-1.242c0.208,0.081,0.346,0.248,0.399,0.484
			c0.087,0.391,0.015,0.704-0.215,0.932C166.969,409.903,166.448,410.002,165.876,410.002z M164.359,409.496
			c1.335,0.267,2.32,0.227,2.668-0.12c0.145-0.144,0.186-0.348,0.124-0.623c-0.028-0.128-0.09-0.206-0.194-0.247
			C166.426,408.296,165.107,409.021,164.359,409.496z"/>
		<path style="fill:#407BFF;" d="M163.938,409.741c-0.026,0-0.052-0.006-0.076-0.019c-0.051-0.025-0.085-0.076-0.09-0.134
			c-0.007-0.09-0.173-2.22,0.573-2.939c0.2-0.192,0.442-0.273,0.728-0.239c0.338,0.041,0.559,0.225,0.621,0.518
			c0.171,0.807-0.933,2.351-1.67,2.789C163.998,409.733,163.968,409.741,163.938,409.741z M164.952,406.736
			c-0.145,0-0.269,0.051-0.376,0.154c-0.45,0.434-0.51,1.666-0.488,2.37c0.617-0.524,1.4-1.698,1.28-2.263
			c-0.022-0.103-0.08-0.225-0.335-0.257C165.005,406.738,164.978,406.736,164.952,406.736z"/>
		<path style="fill:#407BFF;" d="M147.615,405.787c-1.086,0-2.724-0.853-3.697-1.423c-0.063-0.037-0.095-0.11-0.078-0.181
			c0.017-0.071,0.077-0.123,0.15-0.129c0.398-0.03,3.907-0.267,4.575,0.537c0.118,0.142,0.155,0.311,0.107,0.488
			c-0.078,0.297-0.254,0.504-0.525,0.615C147.994,405.759,147.813,405.787,147.615,405.787z M144.574,404.353
			c1.61,0.884,2.879,1.272,3.447,1.034c0.171-0.07,0.279-0.199,0.33-0.392c0.02-0.075,0.008-0.133-0.041-0.191
			C147.939,404.36,146.013,404.291,144.574,404.353z"/>
		<path style="fill:#407BFF;" d="M144.002,404.387c-0.057,0-0.109-0.028-0.14-0.076c-0.031-0.049-0.035-0.11-0.01-0.162
			c0.056-0.116,1.389-2.827,3.096-2.017c0.468,0.224,0.517,0.5,0.475,0.692c-0.172,0.802-2.398,1.539-3.417,1.563
			C144.004,404.387,144.003,404.387,144.002,404.387z M146.314,402.317c-0.925,0-1.71,1.177-2.021,1.714
			c1.067-0.134,2.703-0.803,2.805-1.276c0.023-0.109-0.076-0.218-0.294-0.322C146.638,402.353,146.474,402.317,146.314,402.317z"/>
		<path style="fill:#7F3E3B;" d="M162.513,200.422l6.082-1.674l0.833,7.694c0,0-6.016,1.802-7.49-1.358L162.513,200.422z"/>
		<path style="fill:#7F3E3B;" d="M162.387,200.576c2.009-1.861,2.111-5.05,2.111-5.05l1.564,0.851c0,0,0.312,3.458-0.297,4.442
			C165.154,201.803,162.387,200.576,162.387,200.576z"/>
		<polygon style="fill:#7F3E3B;" points="171.45,199.509 171.083,206.443 169.428,206.443 168.595,198.749 		"/>
		<g>
			<polygon style="fill:#407BFF;" points="140.097,388.658 151.173,399.08 154.739,395.25 142.072,383.708 			"/>
			<polygon style="opacity:0.1;" points="140.097,388.658 151.173,399.08 154.739,395.25 142.072,383.708 			"/>
		</g>
		<g>
			<path style="fill:#407BFF;" d="M174.909,220.998c0,0,0.706,56.656-0.497,77.881c-1.317,23.243-7.91,100.246-7.91,100.246h-13.578
				c0,0,0.405-75.126-0.413-98.139c-0.888-24.977-3.188-79.988-3.188-79.988H174.909z"/>
			<path style="opacity:0.5;" d="M174.909,220.998c0,0,0.706,56.656-0.497,77.881c-1.317,23.243-7.91,100.246-7.91,100.246h-13.578
				c0,0,0.405-75.126-0.413-98.139c-0.888-24.977-3.188-79.988-3.188-79.988H174.909z"/>
		</g>
		<g>
			<polygon style="fill:#407BFF;" points="152.377,399.125 167.049,399.125 167.864,393.972 151.669,394.778 			"/>
			<polygon style="opacity:0.1;" points="152.377,399.125 167.049,399.125 167.864,393.972 151.669,394.778 			"/>
		</g>
		<g>
			<path style="fill:#407BFF;" d="M144.801,156.537c-6.979,1.02-14.169,26.713-14.169,26.713l16.868,6.417
				c0,0,4.239-11.043,7.141-19.627C157.682,161.045,152.286,155.443,144.801,156.537z"/>
			<path style="opacity:0.5;fill:#FFFFFF;" d="M144.801,156.537c-6.979,1.02-14.169,26.713-14.169,26.713l16.868,6.417
				c0,0,4.239-11.043,7.141-19.627C157.682,161.045,152.286,155.443,144.801,156.537z"/>
		</g>
	</g>
</g>
</svg>
